<svg t="1637889610630" class="icon" viewBox="0 0 1024 1024" version="1.1" xmlns="http://www.w3.org/2000/svg" p-id="13388" width="16" height="16"><path d="M635.026286 191.926857c20.48 0 38.619429 4.388571 54.637714 13.312 15.945143 8.777143 29.769143 19.748571 41.325714 32.621714 11.556571 12.946286 20.48 26.916571 26.550857 41.910858 6.144 14.921143 9.216 28.233143 9.216 39.789714v576.804571a117.028571 117.028571 0 0 1-11.776 53.101715 127.122286 127.122286 0 0 1-30.646857 39.789714 145.115429 145.115429 0 0 1-42.349714 25.6 128 128 0 0 1-46.957714 9.142857H131.657143c-12.946286 0-27.062857-3.730286-42.422857-11.264a179.053714 179.053714 0 0 1-42.861715-29.549714 167.789714 167.789714 0 0 1-33.206857-42.422857A99.254857 99.254857 0 0 1 0 892.342857V323.657143c0-14.336 3.437714-29.110857 10.24-44.397714 6.802286-15.36 15.652571-29.476571 26.477714-42.422858 10.971429-12.946286 23.552-23.625143 37.814857-32.182857 14.262857-8.484571 29.257143-12.726857 44.909715-12.726857h515.584z m-60.269715 638.098286a62.829714 62.829714 0 0 0 45.494858-18.358857 60.269714 60.269714 0 0 0 18.870857-44.909715 61.952 61.952 0 0 0-18.870857-45.494857 61.952 61.952 0 0 0-45.494858-18.870857H191.926857a61.952 61.952 0 0 0-45.421714 18.870857 61.952 61.952 0 0 0-18.870857 45.494857c0 17.700571 6.290286 32.621714 18.870857 44.909715 12.580571 12.214857 27.794286 18.358857 45.421714 18.358857h382.829714z m0-255.268572a62.829714 62.829714 0 0 0 45.494858-18.285714 60.269714 60.269714 0 0 0 18.870857-44.982857 61.952 61.952 0 0 0-18.870857-45.421714 61.952 61.952 0 0 0-45.494858-18.870857H191.926857a61.952 61.952 0 0 0-45.421714 18.870857 61.952 61.952 0 0 0-18.870857 45.421714c0 17.700571 6.290286 32.694857 18.870857 44.909714 12.580571 12.288 27.794286 18.358857 45.421714 18.358857h382.829714zM755.565714 0c29.257143 0 56.173714 8.704 80.676572 26.038857 24.502857 17.334857 45.714286 38.765714 63.780571 64.365714 18.066286 25.453714 32.182857 53.028571 42.422857 82.651429 10.166857 29.622857 15.286857 56.685714 15.286857 81.188571v542.061715a66.121143 66.121143 0 0 1-12.8 39.350857 126.829714 126.829714 0 0 1-31.158857 30.573714c-12.214857 8.557714-25.453714 15.36-39.789714 20.48-14.262857 5.12-27.574857 7.606857-39.789714 7.606857h-4.096V284.818286c-5.485714-46.957714-20.114286-83.017143-43.885715-108.251429-23.844571-25.161143-55.515429-41.472-94.939428-49.005714H192.950857a17.554286 17.554286 0 0 0 1.024-7.094857c0-13.604571 4.096-27.574857 12.214857-41.837715 8.192-14.336 18.944-27.209143 32.182857-38.765714a183.588571 183.588571 0 0 1 44.397715-28.598857C299.154286 3.657143 315.465143 0 331.776 0h423.716571z" p-id="13389"></path></svg>