<?xml version="1.0" encoding="utf-8"?>
<!-- Generator: Adobe Illustrator 23.1.0, SVG Export Plug-In . SVG Version: 6.00 Build 0)  -->
<svg version="1.1" id="图层_1" xmlns="http://www.w3.org/2000/svg" xmlns:xlink="http://www.w3.org/1999/xlink" x="0px" y="0px"
	 viewBox="0 0 768 151" style="enable-background:new 0 0 768 151;" xml:space="preserve">
<style type="text/css">
	.st0{fill:#D74140;}
	.st1{fill:#FFFFFF;}
</style>
<title>资源 1</title>
<g id="图层_1-2">
	<path class="st0" d="M75.1,0c-102.5,5.3-97.7,147.8,0,151C177.6,145.6,172.9,3.1,75.1,0z M58.5,120.4H39.1v-67h19.4V120.4z
		 M117.2,120.4H68.7v-67c31.5-7.5,15.3,32,19,47.5h29.5L117.2,120.4L117.2,120.4z M117.2,89.5H97.8c4.2-60.8-15.5-44.3-58.7-46.8
		V23.3C102.7,21,120.5,26.2,117.2,89.5z"/>
</g>
<g>
	<path class="st1" d="M202.1,122.9h-29V34.1h27.8c32,0.3,48.3,14.8,48.8,43.6C250.8,108.9,234.9,123.9,202.1,122.9z M200.5,50.7
		h-6.9v56.5h6.9c18.6,0,27.8-9.7,27.8-29C227.8,60.1,218.5,50.9,200.5,50.7z"/>
	<path class="st1" d="M326.4,122.5h-18.6c-1.9-3.2-2.8-6.3-2.8-9.3c-5.9,7-15.1,10.6-27.4,10.9c-12.9-0.8-19.8-6.7-20.6-17.8
		c-0.3-11.6,7.5-18.6,23.4-21c11.6-1.9,19.4-3.9,23.4-6.1c0.8-5.6-3.4-8.3-12.5-8.1c-7.3,0-12,2.7-14.1,8.1L259,76.9
		c3.5-12.9,14.1-19.2,31.9-19c22.6-0.8,33.3,8.3,32.3,27.4v24.2C323.2,115.2,324.2,119.5,326.4,122.5z M305.4,93.8v-3.6
		c-4,2.4-9.7,4.3-16.9,5.6c-8.6,1.9-12.9,4.8-12.9,8.9c-0.3,4.3,3.1,6.5,10.1,6.5C297.5,110.4,304.1,104.6,305.4,93.8z"/>
	<path class="st1" d="M381.2,60.7l-6.5,16.5c-2.7-1.6-5.4-2.4-8.1-2.4c-8.6,0.3-13,5.6-13.3,16.1v31.5H334V59.1h19.4v11.7
		c3.5-8.9,9.1-13.3,16.9-13.3C373.8,57.5,377.5,58.6,381.2,60.7z"/>
	<path class="st1" d="M458.7,122.5h-23.4l-16.9-26.2l-10.5,10.1v16.1h-19.4v-94h19.4v56.1l24.6-25.4h24.6l-25.8,25L458.7,122.5z"/>
	<path class="st1" d="M530.9,122.9h-65.8V34.1h20.2v73h45.6V122.9z"/>
	<path class="st1" d="M560.8,50.3h-20.2V34.1h20.2V50.3z M560.8,122.9h-20.2V59.5h20.2V122.9z"/>
	<path class="st1" d="M572.1,123.7l21.4,2c0.5,5.6,4.4,8.5,11.7,8.5c8.1-0.3,12.2-5.5,12.5-15.7l-0.4-8.5
		c-4,6.7-10.6,10.1-19.8,10.1c-17.2-0.8-26.1-11.2-26.6-31.1c0.3-20.7,9.7-31.2,28.2-31.5c8.6,0.3,14.7,3.4,18.2,9.3v-7.7H637v53.7
		c1.3,25.3-10.2,37.2-34.7,35.9C583.5,148.4,573.4,140.1,572.1,123.7z M617.6,89.4V87c-0.3-9.1-4.6-13.8-12.9-14.1
		c-9.1,0.3-13.9,5.4-14.1,15.3c0.3,11.3,4.8,17.2,13.7,17.8C613.2,105.9,617.6,100.4,617.6,89.4z"/>
	<path class="st1" d="M714.1,122.5h-19.8V87c0-9.4-3.9-14.1-11.7-14.1c-7.8,0.8-12,5.8-12.5,14.9v34.7h-19.4v-94h19.4v40.3
		c5.6-7,12.5-10.6,20.6-10.9c15.9-0.3,23.7,8.3,23.4,25.8V122.5z"/>
	<path class="st1" d="M731.4,104.3V73.7h-10.1V59.1h10.1V37.3l19.4-3.6v25.4h15.3v14.5h-15.3v26.2c0,6.7,2.6,10,7.7,9.7
		c1.9,0,3.8-0.5,5.6-1.6l4,12.5c-3.8,2.4-9.1,3.6-16.1,3.6C738,124.3,731.1,117.8,731.4,104.3z"/>
</g>
</svg>
